<svg width="57" height="57" viewBox="0 0 57 57" fill="none" xmlns="http://www.w3.org/2000/svg">
<path fill-rule="evenodd" clip-rule="evenodd" d="M35.3553 35.3553C35.5898 35.1209 35.7215 34.803 35.7215 34.4714C35.7215 34.1399 35.5898 33.822 35.3553 33.5876L25.1147 23.3469L32.7037 23.3486C32.868 23.3486 33.0308 23.3163 33.1826 23.2534C33.3345 23.1905 33.4725 23.0983 33.5887 22.9821C33.7049 22.8658 33.7971 22.7279 33.86 22.576C33.9229 22.4242 33.9553 22.2614 33.9553 22.0971C33.9553 21.9327 33.9229 21.77 33.86 21.6181C33.7971 21.4663 33.7049 21.3283 33.5887 21.2121C33.4725 21.0958 33.3345 21.0037 33.1826 20.9408C33.0308 20.8779 32.868 20.8455 32.7037 20.8455L22.0971 20.8455C21.9327 20.8453 21.7698 20.8775 21.6179 20.9403C21.4659 21.0032 21.3279 21.0953 21.2116 21.2116C21.0954 21.3279 21.0032 21.4659 20.9403 21.6179C20.8775 21.7698 20.8453 21.9326 20.8455 22.0971L20.8455 32.7037C20.8455 33.0356 20.9774 33.354 21.2121 33.5887C21.4468 33.8234 21.7651 33.9552 22.0971 33.9552C22.429 33.9552 22.7474 33.8234 22.9821 33.5887C23.2168 33.3539 23.3487 33.0356 23.3487 32.7037L23.3469 25.1146L33.5876 35.3553C33.822 35.5897 34.1399 35.7214 34.4714 35.7214C34.803 35.7214 35.1209 35.5897 35.3553 35.3553Z" fill="#413d4e"/>
</svg>
