<svg width="41" height="41" viewBox="0 0 41 41" fill="none" xmlns="http://www.w3.org/2000/svg">
<path fill-rule="evenodd" clip-rule="evenodd" d="M30.2843 20.5682C30.2843 20.2367 30.1526 19.9188 29.9182 19.6844C29.6837 19.4499 29.3658 19.3182 29.0343 19.3182H14.5518L19.9193 13.9532C20.0355 13.837 20.1277 13.6991 20.1906 13.5472C20.2535 13.3954 20.2859 13.2326 20.2859 13.0682C20.2859 12.9039 20.2535 12.7411 20.1906 12.5893C20.1277 12.4374 20.0355 12.2995 19.9193 12.1832C19.8031 12.067 19.6651 11.9748 19.5132 11.9119C19.3614 11.849 19.1986 11.8167 19.0343 11.8167C18.8699 11.8167 18.7072 11.849 18.5553 11.9119C18.4035 11.9748 18.2655 12.067 18.1493 12.1832L10.6493 19.6832C10.5329 19.7994 10.4405 19.9373 10.3775 20.0892C10.3145 20.241 10.282 20.4038 10.282 20.5682C10.282 20.7327 10.3145 20.8955 10.3775 21.0473C10.4405 21.1992 10.5329 21.3371 10.6493 21.4532L18.1493 28.9532C18.384 29.188 18.7023 29.3198 19.0343 29.3198C19.3662 29.3198 19.6846 29.188 19.9193 28.9532C20.154 28.7185 20.2859 28.4002 20.2859 28.0682C20.2859 27.7363 20.154 27.418 19.9193 27.1832L14.5518 21.8182H29.0343C29.3658 21.8182 29.6837 21.6865 29.9182 21.4521C30.1526 21.2177 30.2843 20.8998 30.2843 20.5682Z" fill="#A5A2AB"/>
</svg>
