<svg width="24" height="24" viewBox="0 0 24 24" fill="none" xmlns="http://www.w3.org/2000/svg">
<g clip-path="url(#clip0_399_747)">
<path fill-rule="evenodd" clip-rule="evenodd" d="M16.3257 16.8987L21.7057 22.2787C21.8948 22.468 22.001 22.7246 22.0009 22.9921C22.0008 23.2596 21.8945 23.5161 21.7052 23.7052C21.516 23.8943 21.2594 24.0005 20.9919 24.0004C20.7244 24.0003 20.4678 23.894 20.2787 23.7047L14.8987 18.3247C13.2905 19.5704 11.268 20.1566 9.24287 19.9641C7.21772 19.7716 5.34198 18.8148 3.99723 17.2884C2.65248 15.7619 1.93973 13.7806 2.004 11.7473C2.06826 9.71402 2.9047 7.7816 4.34315 6.34315C5.7816 4.9047 7.71402 4.06826 9.74729 4.004C11.7806 3.93973 13.7619 4.65248 15.2884 5.99723C16.8148 7.34198 17.7716 9.21772 17.9641 11.2429C18.1566 13.268 17.5704 15.2905 16.3247 16.8987H16.3257ZM10.0007 17.9997C11.592 17.9997 13.1182 17.3676 14.2434 16.2424C15.3686 15.1172 16.0007 13.591 16.0007 11.9997C16.0007 10.4084 15.3686 8.88232 14.2434 7.7571C13.1182 6.63189 11.592 5.99974 10.0007 5.99974C8.40944 5.99974 6.88332 6.63189 5.7581 7.7571C4.63289 8.88232 4.00074 10.4084 4.00074 11.9997C4.00074 13.591 4.63289 15.1172 5.7581 16.2424C6.88332 17.3676 8.40944 17.9997 10.0007 17.9997Z" fill="#060017"/>
</g>
<defs>
<clipPath id="clip0_399_747">
<rect width="24" height="24" fill="white"/>
</clipPath>
</defs>
</svg>
